<svg xmlns="http://www.w3.org/2000/svg" height="935.57129pt" version="1.1" viewBox="0 0 935.57129 935.57129" width="935.57129pt">
<g id="surface1">
<path d="M 935.382812 170.566406 C 935.296875 169.183594 935.03125 167.820312 934.574219 166.507812 C 934.398438 166.015625 934.277344 165.546875 934.058594 165.0625 C 933.304688 163.363281 932.246094 161.820312 930.941406 160.5 L 775.019531 4.566406 C 773.703125 3.261719 772.148438 2.207031 770.464844 1.445312 C 769.957031 1.230469 769.484375 1.101562 768.976562 0.933594 C 767.6875 0.488281 766.351562 0.214844 764.992188 0.132812 C 764.707031 0.164062 764.390625 0 764.046875 0 L 358.636719 0 C 350.023438 0 343.042969 6.984375 343.042969 15.59375 L 343.042969 467.78125 L 374.226562 467.78125 L 374.226562 31.179688 L 748.457031 31.179688 L 748.457031 171.519531 C 748.457031 180.132812 755.4375 187.113281 764.046875 187.113281 L 904.390625 187.113281 L 904.390625 810.824219 L 686.089844 810.824219 L 686.089844 842.015625 L 919.980469 842.015625 C 928.589844 842.015625 935.570312 835.035156 935.570312 826.421875 L 935.570312 171.519531 C 935.570312 171.191406 935.398438 170.898438 935.382812 170.566406 Z M 779.644531 155.929688 L 779.644531 53.234375 L 882.335938 155.929688 Z M 779.644531 155.929688 " style=" stroke:none;fill-rule:nonzero;fill:rgb(0%,0%,0%);fill-opacity:1;" />
<path d="M 436.601562 249.488281 L 623.714844 249.488281 C 632.324219 249.488281 639.304688 242.503906 639.304688 233.890625 L 639.304688 124.742188 C 639.304688 118.027344 635.015625 112.066406 628.640625 109.941406 L 535.082031 78.753906 C 531.882812 77.691406 528.429688 77.691406 525.230469 78.753906 L 431.675781 109.941406 C 425.304688 112.066406 421.007812 118.027344 421.007812 124.742188 L 421.007812 233.890625 C 421.007812 242.503906 427.988281 249.488281 436.601562 249.488281 Z M 452.191406 171.519531 L 483.378906 171.519531 L 483.378906 218.296875 L 452.191406 218.296875 Z M 545.75 171.519531 L 545.75 218.296875 L 514.5625 218.296875 L 514.5625 171.519531 Z M 576.933594 218.296875 L 576.933594 171.519531 L 608.125 171.519531 L 608.125 218.296875 Z M 452.191406 135.980469 L 530.15625 109.984375 L 608.125 135.980469 L 608.125 140.335938 L 452.191406 140.335938 Z M 452.191406 135.980469 " style=" stroke:none;fill-rule:nonzero;fill:rgb(0%,0%,0%);fill-opacity:1;" />
<path d="M 421.007812 467.78125 L 686.089844 467.78125 L 686.089844 779.644531 L 842.015625 779.644531 C 850.628906 779.644531 857.613281 772.660156 857.613281 764.046875 L 857.613281 327.453125 C 857.613281 318.84375 850.628906 311.859375 842.015625 311.859375 L 436.601562 311.859375 C 427.988281 311.859375 421.007812 318.84375 421.007812 327.453125 Z M 452.191406 436.601562 L 452.191406 405.414062 L 686.089844 405.414062 L 686.089844 436.601562 Z M 717.269531 405.414062 L 826.421875 405.414062 L 826.421875 436.601562 L 717.269531 436.601562 Z M 826.421875 467.78125 L 826.421875 498.976562 L 717.269531 498.976562 L 717.269531 467.78125 Z M 717.269531 654.902344 L 826.421875 654.902344 L 826.421875 686.089844 L 717.269531 686.089844 Z M 717.269531 623.714844 L 717.269531 592.53125 L 826.421875 592.53125 L 826.421875 623.714844 Z M 717.269531 561.347656 L 717.269531 530.15625 L 826.421875 530.15625 L 826.421875 561.347656 Z M 717.269531 748.457031 L 717.269531 717.269531 L 826.421875 717.269531 L 826.421875 748.457031 Z M 826.421875 343.042969 L 826.421875 374.226562 L 717.269531 374.226562 L 717.269531 343.042969 Z M 686.089844 343.042969 L 686.089844 374.226562 L 452.191406 374.226562 L 452.191406 343.042969 Z M 686.089844 343.042969 " style=" stroke:none;fill-rule:nonzero;fill:rgb(0%,0%,0%);fill-opacity:1;" />
<path d="M 670.492188 218.296875 L 842.015625 218.296875 L 842.015625 249.488281 L 670.492188 249.488281 Z M 670.492188 218.296875 " style=" stroke:none;fill-rule:nonzero;fill:rgb(0%,0%,0%);fill-opacity:1;" />
<path d="M 670.492188 155.929688 L 717.269531 155.929688 L 717.269531 187.113281 L 670.492188 187.113281 Z M 670.492188 155.929688 " style=" stroke:none;fill-rule:nonzero;fill:rgb(0%,0%,0%);fill-opacity:1;" />
<path d="M 77.964844 935.570312 L 576.933594 935.570312 C 619.976562 935.523438 654.84375 900.640625 654.902344 857.613281 L 654.902344 576.933594 C 654.84375 533.898438 619.976562 499.019531 576.933594 498.976562 L 77.964844 498.976562 C 34.921875 499.019531 0.0546875 533.898438 0 576.933594 L 0 857.613281 C 0.0546875 900.640625 34.921875 935.523438 77.964844 935.570312 Z M 31.179688 576.933594 C 31.179688 551.097656 52.128906 530.15625 77.964844 530.15625 L 576.933594 530.15625 C 602.769531 530.15625 623.714844 551.097656 623.714844 576.933594 L 623.714844 857.613281 C 623.714844 883.441406 602.769531 904.390625 576.933594 904.390625 L 77.964844 904.390625 C 52.128906 904.390625 31.179688 883.441406 31.179688 857.613281 Z M 31.179688 576.933594 " style=" stroke:none;fill-rule:nonzero;fill:rgb(0%,0%,0%);fill-opacity:1;" />
<path d="M 77.964844 686.089844 L 171.519531 686.089844 C 180.132812 686.089844 187.113281 679.105469 187.113281 670.492188 L 187.113281 576.933594 C 187.113281 568.328125 180.132812 561.347656 171.519531 561.347656 L 77.964844 561.347656 C 69.355469 561.347656 62.375 568.328125 62.375 576.933594 L 62.375 670.492188 C 62.375 679.105469 69.355469 686.089844 77.964844 686.089844 Z M 93.554688 592.53125 L 155.929688 592.53125 L 155.929688 654.902344 L 93.554688 654.902344 Z M 93.554688 592.53125 " style=" stroke:none;fill-rule:nonzero;fill:rgb(0%,0%,0%);fill-opacity:1;" />
<path d="M 77.964844 717.269531 L 140.335938 717.269531 L 140.335938 748.457031 L 77.964844 748.457031 Z M 77.964844 717.269531 " style=" stroke:none;fill-rule:nonzero;fill:rgb(0%,0%,0%);fill-opacity:1;" />
<path d="M 77.964844 779.644531 L 140.335938 779.644531 L 140.335938 810.824219 L 77.964844 810.824219 Z M 77.964844 779.644531 " style=" stroke:none;fill-rule:nonzero;fill:rgb(0%,0%,0%);fill-opacity:1;" />
<path d="M 358.636719 779.644531 L 421.007812 779.644531 L 421.007812 810.824219 L 358.636719 810.824219 Z M 358.636719 779.644531 " style=" stroke:none;fill-rule:nonzero;fill:rgb(0%,0%,0%);fill-opacity:1;" />
<path d="M 171.519531 717.269531 L 233.890625 717.269531 L 233.890625 748.457031 L 171.519531 748.457031 Z M 171.519531 717.269531 " style=" stroke:none;fill-rule:nonzero;fill:rgb(0%,0%,0%);fill-opacity:1;" />
<path d="M 265.082031 717.269531 L 327.453125 717.269531 L 327.453125 748.457031 L 265.082031 748.457031 Z M 265.082031 717.269531 " style=" stroke:none;fill-rule:nonzero;fill:rgb(0%,0%,0%);fill-opacity:1;" />
<path d="M 358.636719 717.269531 L 421.007812 717.269531 L 421.007812 748.457031 L 358.636719 748.457031 Z M 358.636719 717.269531 " style=" stroke:none;fill-rule:nonzero;fill:rgb(0%,0%,0%);fill-opacity:1;" />
<path d="M 452.191406 717.269531 L 514.5625 717.269531 L 514.5625 748.457031 L 452.191406 748.457031 Z M 452.191406 717.269531 " style=" stroke:none;fill-rule:nonzero;fill:rgb(0%,0%,0%);fill-opacity:1;" />
<path d="M 545.75 576.933594 L 576.933594 576.933594 L 576.933594 608.125 L 545.75 608.125 Z M 545.75 576.933594 " style=" stroke:none;fill-rule:nonzero;fill:rgb(0%,0%,0%);fill-opacity:1;" />
<path d="M 483.378906 576.933594 L 514.5625 576.933594 L 514.5625 608.125 L 483.378906 608.125 Z M 483.378906 576.933594 " style=" stroke:none;fill-rule:nonzero;fill:rgb(0%,0%,0%);fill-opacity:1;" />
<path d="M 421.007812 576.933594 L 452.191406 576.933594 L 452.191406 608.125 L 421.007812 608.125 Z M 421.007812 576.933594 " style=" stroke:none;fill-rule:nonzero;fill:rgb(0%,0%,0%);fill-opacity:1;" />
<path d="M 358.636719 576.933594 L 389.820312 576.933594 L 389.820312 608.125 L 358.636719 608.125 Z M 358.636719 576.933594 " style=" stroke:none;fill-rule:nonzero;fill:rgb(0%,0%,0%);fill-opacity:1;" />
<path d="M 467.78125 779.644531 C 459.175781 779.644531 452.191406 786.625 452.191406 795.238281 L 452.191406 857.613281 C 452.191406 866.21875 459.175781 873.199219 467.78125 873.199219 L 576.933594 873.199219 C 585.546875 873.199219 592.53125 866.21875 592.53125 857.613281 L 592.53125 795.238281 C 592.53125 786.625 585.546875 779.644531 576.933594 779.644531 Z M 561.347656 842.015625 L 483.378906 842.015625 L 483.378906 810.824219 L 561.347656 810.824219 Z M 561.347656 842.015625 " style=" stroke:none;fill-rule:nonzero;fill:rgb(0%,0%,0%);fill-opacity:1;" />
</g>
</svg>